<mxfile host="app.diagrams.net" agent="Mozilla/5.0 (Windows NT 10.0; Win64; x64) AppleWebKit/537.36 (KHTML, like Gecko) Chrome/131.0.0.0 Safari/537.36" version="26.0.6">
  <diagram name="Page-1" id="jXbOr58YGKUcW440xLOA">
    <mxGraphModel dx="600" dy="318" grid="1" gridSize="10" guides="1" tooltips="1" connect="1" arrows="1" fold="1" page="1" pageScale="1" pageWidth="827" pageHeight="1169" math="0" shadow="0">
      <root>
        <mxCell id="0" />
        <mxCell id="1" parent="0" />
        <mxCell id="HAbo73T3zeJfp4IpsV-E-3" value="Trainer" style="shape=umlFrame;whiteSpace=wrap;html=1;pointerEvents=0;" parent="1" vertex="1">
          <mxGeometry x="80" y="30" width="450" height="340" as="geometry" />
        </mxCell>
        <mxCell id="HAbo73T3zeJfp4IpsV-E-7" value="" style="shape=waypoint;sketch=0;fillStyle=solid;size=6;pointerEvents=1;points=[];fillColor=none;resizable=0;rotatable=0;perimeter=centerPerimeter;snapToPoint=1;" parent="1" vertex="1">
          <mxGeometry x="140" y="80" width="20" height="20" as="geometry" />
        </mxCell>
        <mxCell id="HAbo73T3zeJfp4IpsV-E-9" value="" style="endArrow=classic;html=1;rounded=0;exitX=0.401;exitY=0.751;exitDx=0;exitDy=0;exitPerimeter=0;entryX=0.5;entryY=0;entryDx=0;entryDy=0;" parent="1" source="HAbo73T3zeJfp4IpsV-E-7" target="HAbo73T3zeJfp4IpsV-E-10" edge="1">
          <mxGeometry width="50" height="50" relative="1" as="geometry">
            <mxPoint x="180" y="170" as="sourcePoint" />
            <mxPoint x="230" y="120" as="targetPoint" />
          </mxGeometry>
        </mxCell>
        <mxCell id="HAbo73T3zeJfp4IpsV-E-10" value="Available" style="rounded=1;whiteSpace=wrap;html=1;" parent="1" vertex="1">
          <mxGeometry x="110" y="140" width="80" height="30" as="geometry" />
        </mxCell>
        <mxCell id="HAbo73T3zeJfp4IpsV-E-11" value="Appointed" style="rounded=1;whiteSpace=wrap;html=1;" parent="1" vertex="1">
          <mxGeometry x="420" y="140" width="80" height="30" as="geometry" />
        </mxCell>
        <mxCell id="HAbo73T3zeJfp4IpsV-E-13" value="" style="endArrow=classic;html=1;rounded=0;exitX=1;exitY=0.5;exitDx=0;exitDy=0;" parent="1" source="HAbo73T3zeJfp4IpsV-E-10" target="HAbo73T3zeJfp4IpsV-E-11" edge="1">
          <mxGeometry width="50" height="50" relative="1" as="geometry">
            <mxPoint x="240" y="100" as="sourcePoint" />
            <mxPoint x="240" y="150" as="targetPoint" />
          </mxGeometry>
        </mxCell>
        <mxCell id="HAbo73T3zeJfp4IpsV-E-14" value="Cancellation" style="rounded=1;whiteSpace=wrap;html=1;" parent="1" vertex="1">
          <mxGeometry x="110" y="290" width="80" height="30" as="geometry" />
        </mxCell>
        <mxCell id="HAbo73T3zeJfp4IpsV-E-15" value="" style="endArrow=classic;html=1;rounded=0;exitX=0.5;exitY=0;exitDx=0;exitDy=0;entryX=0.5;entryY=1;entryDx=0;entryDy=0;" parent="1" source="HAbo73T3zeJfp4IpsV-E-14" target="HAbo73T3zeJfp4IpsV-E-10" edge="1">
          <mxGeometry width="50" height="50" relative="1" as="geometry">
            <mxPoint x="130" y="220" as="sourcePoint" />
            <mxPoint x="360" y="220" as="targetPoint" />
          </mxGeometry>
        </mxCell>
        <mxCell id="HAbo73T3zeJfp4IpsV-E-16" value="" style="endArrow=classic;html=1;rounded=0;exitX=0.166;exitY=1.03;exitDx=0;exitDy=0;entryX=1;entryY=0.5;entryDx=0;entryDy=0;exitPerimeter=0;" parent="1" source="HAbo73T3zeJfp4IpsV-E-11" target="HAbo73T3zeJfp4IpsV-E-14" edge="1">
          <mxGeometry width="50" height="50" relative="1" as="geometry">
            <mxPoint x="250" y="340" as="sourcePoint" />
            <mxPoint x="250" y="220" as="targetPoint" />
          </mxGeometry>
        </mxCell>
        <mxCell id="HAbo73T3zeJfp4IpsV-E-17" value="Trainer Booked" style="text;html=1;align=center;verticalAlign=middle;whiteSpace=wrap;rounded=0;" parent="1" vertex="1">
          <mxGeometry x="220" y="130" width="130" height="30" as="geometry" />
        </mxCell>
        <mxCell id="HAbo73T3zeJfp4IpsV-E-19" value="Member Canceled" style="text;html=1;align=center;verticalAlign=middle;whiteSpace=wrap;rounded=0;rotation=-30;" parent="1" vertex="1">
          <mxGeometry x="240" y="215" width="130" height="30" as="geometry" />
        </mxCell>
        <mxCell id="HAbo73T3zeJfp4IpsV-E-21" value="Trainer Available" style="text;html=1;align=center;verticalAlign=middle;whiteSpace=wrap;rounded=0;rotation=-90;" parent="1" vertex="1">
          <mxGeometry x="76" y="220" width="130" height="30" as="geometry" />
        </mxCell>
        <mxCell id="HAbo73T3zeJfp4IpsV-E-22" value="Reappoint" style="rounded=1;whiteSpace=wrap;html=1;" parent="1" vertex="1">
          <mxGeometry x="420" y="290" width="80" height="30" as="geometry" />
        </mxCell>
        <mxCell id="jBPyQbyYroXNKY1LcK1L-1" value="" style="endArrow=classic;html=1;rounded=0;exitX=0.619;exitY=1.008;exitDx=0;exitDy=0;exitPerimeter=0;" edge="1" parent="1" source="HAbo73T3zeJfp4IpsV-E-11">
          <mxGeometry width="50" height="50" relative="1" as="geometry">
            <mxPoint x="474.15999999999997" y="169.48999999999995" as="sourcePoint" />
            <mxPoint x="470" y="290" as="targetPoint" />
          </mxGeometry>
        </mxCell>
        <mxCell id="jBPyQbyYroXNKY1LcK1L-2" value="" style="endArrow=classic;html=1;rounded=0;exitX=0.25;exitY=0;exitDx=0;exitDy=0;entryX=0.25;entryY=1;entryDx=0;entryDy=0;" edge="1" parent="1">
          <mxGeometry width="50" height="50" relative="1" as="geometry">
            <mxPoint x="449" y="291" as="sourcePoint" />
            <mxPoint x="449" y="171" as="targetPoint" />
          </mxGeometry>
        </mxCell>
        <mxCell id="jBPyQbyYroXNKY1LcK1L-3" value="Appoint Member" style="text;html=1;align=center;verticalAlign=middle;whiteSpace=wrap;rounded=0;rotation=90;" vertex="1" parent="1">
          <mxGeometry x="427" y="212" width="100" height="30" as="geometry" />
        </mxCell>
      </root>
    </mxGraphModel>
  </diagram>
</mxfile>
